<svg width="24" height="25" viewBox="0 0 24 25" fill="none" xmlns="http://www.w3.org/2000/svg">
<path d="M5.28259 3.28277L5.28277 3.28259C7.07727 1.48719 9.46191 0.5 12.0014 0.5C17.2318 0.5 21.4937 4.76187 21.5 10.0001V10.0003C21.5015 11.0208 21.1484 12.1753 20.541 13.3983C19.936 14.6165 19.0956 15.8691 18.1626 17.0771C16.2974 19.4919 14.0992 21.6816 12.7678 23.0078L12.7646 23.011L12.7645 23.0111C12.7116 23.0638 12.6599 23.1153 12.6094 23.1656C12.3738 23.4002 12.1665 23.6067 11.9991 23.7796C10.7947 22.696 8.41454 20.5505 6.33113 18.0068C4.21506 15.4232 2.5 12.5399 2.5 10.0005C2.5 7.46193 3.48717 5.07729 5.28259 3.28277Z" stroke="#757575"/>
<path fill-rule="evenodd" clip-rule="evenodd" d="M12.0017 12.6628C10.4609 12.6628 9.20729 11.4082 9.20729 9.86739C9.20729 8.32654 10.4609 7.07295 12.0017 7.07295C13.5426 7.07295 14.7962 8.32654 14.7962 9.86739C14.7962 11.4082 13.5426 12.6628 12.0017 12.6628ZM12.0019 6.1311C9.94116 6.1311 8.26562 7.80758 8.26562 9.86739C8.26562 11.9281 9.94116 13.6046 12.0019 13.6046C14.0627 13.6046 15.7382 11.9281 15.7382 9.86739C15.7382 7.80758 14.0627 6.1311 12.0019 6.1311Z" fill="#6F6F6F"/>
</svg>
