<svg width="24" height="24" viewBox="0 0 24 24" fill="none" xmlns="http://www.w3.org/2000/svg">
<mask id="mask0" mask-type="alpha" maskUnits="userSpaceOnUse" x="2" y="2" width="20" height="20">
<path fill-rule="evenodd" clip-rule="evenodd" d="M2 2H22V21.9998H2V2Z" fill="white"/>
</mask>
<g mask="url(#mask0)">
<path fill-rule="evenodd" clip-rule="evenodd" d="M12 21.2414C6.90407 21.2414 2.75832 17.0957 2.75832 11.9998C2.75832 6.90384 6.90407 2.75809 12 2.75809C17.0959 2.75809 21.2424 6.90384 21.2424 11.9998C21.2424 17.0957 17.0959 21.2414 12 21.2414ZM12 1.99969C6.48624 1.99969 2 6.48593 2 11.9997C2 17.5135 6.48624 21.9997 12 21.9997C17.5138 21.9997 22.0008 17.5135 22.0008 11.9997C22.0008 6.48593 17.5138 1.99969 12 1.99969Z" fill="#6F6F6F"/>
</g>
<path fill-rule="evenodd" clip-rule="evenodd" d="M11.624 18.2842H12.3755V17.5327H11.624V18.2842Z" fill="#6F6F6F"/>
<path fill-rule="evenodd" clip-rule="evenodd" d="M15.6137 10.8289C15.6167 10.813 15.6182 10.7956 15.6205 10.7796C15.6516 10.6067 15.6736 10.4043 15.6736 10.1578C15.6736 8.1657 14.0515 6.5444 12.0594 6.5444C10.0681 6.5444 8.44678 8.1657 8.44678 10.1578C8.44678 10.3133 8.45664 10.4672 8.47635 10.6181C8.47863 10.6348 9.2415 10.6098 9.2415 10.6098C9.21723 10.4627 9.2051 10.3117 9.2051 10.1578C9.2051 8.58353 10.4859 7.30273 12.0594 7.30273C13.4161 7.30273 14.549 8.25442 14.8394 9.52385C14.8819 9.77031 14.9031 10.1062 14.9031 10.2837C14.9031 11.4106 14.2047 11.9437 13.1491 12.752C12.9163 12.9295 12.6737 13.1153 12.4242 13.3185C11.9138 13.7348 11.6211 14.3529 11.6211 15.0171L11.6348 16.5065L12.3931 16.4989L12.3787 15.0133C12.3787 14.5819 12.5698 14.1784 12.9034 13.9062C13.1469 13.7068 13.3835 13.527 13.6087 13.3541C14.4739 12.6929 15.2391 12.0953 15.5303 11.1451C15.5598 11.0564 15.5887 10.9556 15.6137 10.8289Z" fill="#6F6F6F"/>
</svg>
