<svg width="24" height="24" viewBox="0 0 24 24" fill="none" xmlns="http://www.w3.org/2000/svg">
<path d="M11.5586 12.0258C6.28806 12.0258 2 16.3139 2 21.5844C2 21.8138 2.1862 22 2.41561 22C2.64501 22 2.83121 21.8138 2.83121 21.5844C2.83121 16.7718 6.74609 12.8569 11.5587 12.8569C16.3712 12.8569 20.2861 16.7718 20.2861 21.5844C20.2861 21.8138 20.4723 22 20.7017 22C20.9311 22 21.1173 21.8138 21.1173 21.5844C21.1173 16.313 16.8292 12.0258 11.5586 12.0258Z" fill="#757575" stroke="#757575" stroke-width="0.1"/>
<path d="M11.5583 2C9.03816 2 6.98682 4.05052 6.98682 6.57151C6.98682 9.09249 9.0382 11.143 11.5583 11.143C14.0785 11.143 16.1298 9.09249 16.1298 6.57151C16.1298 4.05052 14.0785 2 11.5583 2ZM11.5583 10.3118C9.49615 10.3118 7.81799 8.63368 7.81799 6.57151C7.81799 4.50934 9.49615 2.83117 11.5583 2.83117C13.6205 2.83117 15.2987 4.50934 15.2987 6.57151C15.2987 8.63368 13.6205 10.3118 11.5583 10.3118Z" fill="#757575" stroke="#757575" stroke-width="0.1"/>
</svg>
