<svg width="24" height="24" viewBox="0 0 24 24" fill="none" xmlns="http://www.w3.org/2000/svg">
<path d="M15.6116 20.854H6.71392C5.29626 20.854 4.14601 19.6995 4.14601 18.2861V5.71392C4.14601 4.29626 5.30051 3.14601 6.71392 3.14601H15.6965C16.0149 3.14601 16.2695 2.89134 16.2695 2.57301C16.2695 2.25467 16.0149 2 15.6965 2H6.71392C4.66384 2 3 3.66808 3 5.71392V18.2861C3 20.3362 4.66808 22 6.71392 22H15.6116C15.93 22 16.1846 21.7453 16.1846 21.427C16.1846 21.1087 15.9257 20.854 15.6116 20.854Z" fill="#757575"/>
<path d="M21.3703 11.5968L17.7286 7.95501C17.5036 7.73005 17.1428 7.73005 16.9179 7.95501C16.6929 8.17997 16.6929 8.54075 16.9179 8.76571L19.5834 11.4312H7.95777C7.63943 11.4312 7.38477 11.6859 7.38477 12.0042C7.38477 12.3226 7.63943 12.5773 7.95777 12.5773H19.5834L16.9179 15.2428C16.6929 15.4677 16.6929 15.8285 16.9179 16.0535C17.0282 16.1638 17.1768 16.2233 17.3211 16.2233C17.4654 16.2233 17.614 16.1681 17.7243 16.0535L21.3661 12.4117C21.5953 12.1825 21.5953 11.8175 21.3703 11.5968Z" fill="#757575"/>
</svg>
