<svg width="28" height="28" viewBox="0 0 28 28" fill="none" xmlns="http://www.w3.org/2000/svg">
<path fill-rule="evenodd" clip-rule="evenodd" d="M5 6.63605C5 5.73248 5.72608 5 6.63605 5H11.5458C12.4493 5 13.1818 5.72608 13.1818 6.63605V11.5458C13.1818 12.4493 12.4557 13.1818 11.5458 13.1818H6.63605C5.73248 13.1818 5 12.4557 5 11.5458V6.63605ZM14.8182 6.63605C14.8182 5.73248 15.5443 5 16.4542 5H21.364C22.2675 5 23 5.72608 23 6.63605V11.5458C23 12.4493 22.2739 13.1818 21.364 13.1818H16.4542C15.5507 13.1818 14.8182 12.4557 14.8182 11.5458V6.63605ZM14.8182 16.4542C14.8182 15.5507 15.5443 14.8182 16.4542 14.8182H21.364C22.2675 14.8182 23 15.5443 23 16.4542V21.364C23 22.2675 22.2739 23 21.364 23H16.4542C15.5507 23 14.8182 22.2739 14.8182 21.364V16.4542ZM5 16.4542C5 15.5507 5.72608 14.8182 6.63605 14.8182H11.5458C12.4493 14.8182 13.1818 15.5443 13.1818 16.4542V21.364C13.1818 22.2675 12.4557 23 11.5458 23H6.63605C5.73248 23 5 22.2739 5 21.364V16.4542Z" fill="#61BF3D"/>
<mask id="mask0" mask-type="alpha" maskUnits="userSpaceOnUse" x="3" y="3" width="22" height="22">
<path fill-rule="evenodd" clip-rule="evenodd" d="M3 4.99961C3 3.89526 3.88743 3 4.99961 3H11.0004C12.1047 3 13 3.88743 13 4.99961V11.0004C13 12.1047 12.1126 13 11.0004 13H4.99961C3.89526 13 3 12.1126 3 11.0004V4.99961ZM15 4.99961C15 3.89526 15.8874 3 16.9996 3H23.0004C24.1047 3 25 3.88743 25 4.99961V11.0004C25 12.1047 24.1126 13 23.0004 13H16.9996C15.8953 13 15 12.1126 15 11.0004V4.99961ZM15 16.9996C15 15.8953 15.8874 15 16.9996 15H23.0004C24.1047 15 25 15.8874 25 16.9996V23.0004C25 24.1047 24.1126 25 23.0004 25H16.9996C15.8953 25 15 24.1126 15 23.0004V16.9996ZM3 16.9996C3 15.8953 3.88743 15 4.99961 15H11.0004C12.1047 15 13 15.8874 13 16.9996V23.0004C13 24.1047 12.1126 25 11.0004 25H4.99961C3.89526 25 3 24.1126 3 23.0004V16.9996Z" fill="white"/>
</mask>
<g mask="url(#mask0)">
</g>
</svg>
