<svg width="28" height="28" viewBox="0 0 28 28" fill="none" xmlns="http://www.w3.org/2000/svg">
<path d="M9.78163 12.7277C10.4335 13.1631 11.2736 13.2167 11.9744 12.8642L13.4374 12.1322V11.8061L11.6541 8.23676H6.78334L5 11.8061V13.8233L5.68952 13.1333C6.77977 12.0428 8.49981 11.8737 9.78163 12.7277Z" fill="#999999"/>
<path d="M9.78163 12.7277C10.4335 13.1631 11.2736 13.2167 11.9744 12.8642L13.4374 12.1322V11.8061L11.6541 8.23676H6.78334L5 11.8061V13.8233L5.68952 13.1333C6.77977 12.0428 8.49981 11.8737 9.78163 12.7277Z" stroke="#999999"/>
<path d="M16.2428 17.7502C15.7307 17.7502 15.3474 17.9867 15.1374 18.1163C15.0883 18.1466 15.0487 18.171 15.0192 18.1852C14.9884 18.1704 14.9478 18.1452 14.8979 18.1142C14.6877 17.9838 14.3114 17.7502 13.7971 17.7502C12.5908 17.7502 11.5952 19.0846 11.8881 20.7414C12.1395 22.1769 13.1935 22.9998 14.1205 22.9998C14.5051 22.9998 14.7539 22.8761 14.9062 22.8003C14.9526 22.7772 14.9901 22.7586 15.0197 22.7493C15.649 22.9999 15.6684 22.9999 15.9085 22.9998C15.9122 22.9998 15.916 22.9998 15.9199 22.9998C16.8458 22.9987 17.8991 22.1785 18.1518 20.7409C18.4422 19.0929 17.4519 17.7502 16.2428 17.7502Z" fill="#999999"/>
<path d="M16.2428 17.7502C15.7307 17.7502 15.3474 17.9867 15.1374 18.1163C15.0883 18.1466 15.0487 18.171 15.0192 18.1852C14.9884 18.1704 14.9478 18.1452 14.8979 18.1142C14.6877 17.9838 14.3114 17.7502 13.7971 17.7502C12.5908 17.7502 11.5952 19.0846 11.8881 20.7414C12.1395 22.1769 13.1935 22.9998 14.1205 22.9998C14.5051 22.9998 14.7539 22.8761 14.9062 22.8003C14.9526 22.7772 14.9901 22.7586 15.0197 22.7493C15.649 22.9999 15.6684 22.9999 15.9085 22.9998C15.9122 22.9998 15.916 22.9998 15.9199 22.9998C16.8458 22.9987 17.8991 22.1785 18.1518 20.7409C18.4422 19.0929 17.4519 17.7502 16.2428 17.7502Z" stroke="#999999"/>
<path d="M13.4374 13.3122L12.4461 13.8082C11.4095 14.3288 10.1642 14.252 9.19661 13.6056C8.33186 13.029 7.17116 13.1435 6.43522 13.8794L5 15.3157V21.9577H11.1767C11.0357 21.6434 10.9161 21.3063 10.8492 20.9234C10.7131 20.1546 10.8039 19.4062 11.0619 18.7413C10.7037 19.3964 10.0165 19.8468 9.21872 19.8468C8.05542 19.8468 7.10936 18.9002 7.10936 17.7358C7.10936 16.5717 8.05542 15.6249 9.21872 15.6249C10.382 15.6249 11.3281 16.5717 11.3281 17.7358C11.3281 17.9526 11.2858 18.1575 11.225 18.3544C11.3376 18.1422 11.4629 17.9372 11.617 17.7534C12.0971 17.1802 12.7476 16.8321 13.4374 16.7367V13.3122Z" fill="#999999"/>
<path d="M13.4374 13.3122L12.4461 13.8082C11.4095 14.3288 10.1642 14.252 9.19661 13.6056C8.33186 13.029 7.17116 13.1435 6.43522 13.8794L5 15.3157V21.9577H11.1767C11.0357 21.6434 10.9161 21.3063 10.8492 20.9234C10.7131 20.1546 10.8039 19.4062 11.0619 18.7413C10.7037 19.3964 10.0165 19.8468 9.21872 19.8468C8.05542 19.8468 7.10936 18.9002 7.10936 17.7358C7.10936 16.5717 8.05542 15.6249 9.21872 15.6249C10.382 15.6249 11.3281 16.5717 11.3281 17.7358C11.3281 17.9526 11.2858 18.1575 11.225 18.3544C11.3376 18.1422 11.4629 17.9372 11.617 17.7534C12.0971 17.1802 12.7476 16.8321 13.4374 16.7367V13.3122Z" stroke="#999999"/>
<path d="M7.96406 17.7359C7.96406 18.4281 8.5267 18.9914 9.21874 18.9914C9.91079 18.9914 10.4734 18.4281 10.4734 17.7359C10.4734 17.0437 9.91079 16.4804 9.21874 16.4804C8.5267 16.4804 7.96406 17.0437 7.96406 17.7359Z" fill="#999999" stroke="#999999" stroke-width="0.4"/>
<path d="M6.05469 5H12.3828V7.1813H6.05469V5Z" fill="#999999"/>
<path d="M6.05469 5H12.3828V7.1813H6.05469V5Z" stroke="#999999"/>
<path d="M21.4181 10.3477H13.8911L14.4923 11.5614V16.786C14.6294 16.8176 14.756 16.8598 14.872 16.9126C15.3255 16.1421 16.1693 15.625 17.129 15.625V16.6805C16.992 16.6805 16.8442 16.7015 16.7177 16.7438C17.3611 16.8494 17.9622 17.2082 18.4158 17.757C19.1224 18.5803 19.3967 19.7413 19.1857 20.9234C19.1224 21.3034 19.0065 21.6412 18.8587 21.9578H21.9454V13.4191C22.5572 13.1974 23.0001 12.6169 23.0001 11.9309C23.0001 11.0549 22.2935 10.3477 21.4181 10.3477Z" fill="#999999"/>
<path d="M21.4181 10.3477H13.8911L14.4923 11.5614V16.786C14.6294 16.8176 14.756 16.8598 14.872 16.9126C15.3255 16.1421 16.1693 15.625 17.129 15.625V16.6805C16.992 16.6805 16.8442 16.7015 16.7177 16.7438C17.3611 16.8494 17.9622 17.2082 18.4158 17.757C19.1224 18.5803 19.3967 19.7413 19.1857 20.9234C19.1224 21.3034 19.0065 21.6412 18.8587 21.9578H21.9454V13.4191C22.5572 13.1974 23.0001 12.6169 23.0001 11.9309C23.0001 11.0549 22.2935 10.3477 21.4181 10.3477Z" stroke="#999999"/>
</svg>
