<svg width="28" height="28" viewBox="0 0 28 28" fill="none" xmlns="http://www.w3.org/2000/svg">
<path fill-rule="evenodd" clip-rule="evenodd" d="M22.6699 21.1676L17.7417 16.2373C18.6251 15.0324 19.0983 13.5757 19.0917 12.0816C19.0748 8.18163 15.9206 5.02266 12.0208 5.00013C10.1546 4.99169 8.36245 5.73002 7.0437 7.05065C5.72495 8.37127 4.98912 10.1645 5.00012 12.0308C5.01698 15.9312 8.1715 19.0904 12.0716 19.1129C13.5717 19.1195 15.0336 18.6407 16.2393 17.7481L16.2444 17.7442L21.1681 22.6707C21.4343 22.95 21.831 23.0631 22.2044 22.9661C22.5779 22.8691 22.8694 22.5773 22.9661 22.2038C23.0627 21.8302 22.9494 21.4336 22.6699 21.1676ZM12.0666 17.7008C8.94669 17.6829 6.42311 15.1558 6.40942 12.0357C6.40099 10.5428 6.98971 9.10849 8.04451 8.05207C9.09931 6.99565 10.5327 6.40477 12.0255 6.41097C15.1454 6.42892 17.669 8.95606 17.6827 12.0762C17.6911 13.569 17.1024 15.0033 16.0476 16.0597C14.9928 17.1162 13.5594 17.707 12.0666 17.7008Z" fill="#999999"/>
</svg>
