<svg width="160" height="160" viewBox="0 0 160 160" fill="none" xmlns="http://www.w3.org/2000/svg">
<path d="M71.418 57.0029L71.5554 57.2823H71.8667H123.74C130.848 57.2823 136.632 63.066 136.632 70.1743C136.632 74.827 134.117 79.0675 130.186 81.3407L129.936 81.4851V81.7736V129.936H104.987H104.747L104.597 130.123C100.868 134.772 95.4488 137.435 89.7611 136.432L89.7607 136.432C88.7352 136.251 87.7164 135.927 86.6773 135.446L86.4673 135.349L86.2572 135.446C85.2172 135.927 84.1983 136.251 83.1728 136.432L83.1725 136.432C77.4149 137.447 72.0095 134.7 68.3364 130.123L68.1863 129.936H67.9465H23.3571V66.1637L34.6679 43.1654L35.0224 42.4447H34.2193H30.0527V23.3572H69.2278V42.4447H65.0613H64.2582L64.6126 43.1654L71.418 57.0029ZM36.2483 29.0527H35.7483V29.5527V36.2483V36.7483H36.2483H63.0314H63.5314V36.2483V29.5527V29.0527H63.0314H36.2483ZM41.6813 42.4447H41.37L41.2326 42.7241L29.104 67.384L29.0527 67.4884V67.6047V72.464V73.4547L29.8497 72.8662C36.5591 67.912 45.8371 67.564 52.9378 72.2976L52.9379 72.2976C57.2262 75.1558 62.751 75.5 67.3601 73.1954L69.9514 71.8997L70.2278 71.7615V71.4525V67.6047V67.4884L70.1765 67.384L58.0479 42.7241L57.9105 42.4447H57.5993H41.6813ZM29.1991 81.2509L29.0527 81.3974V81.6044V123.74V123.741V124.241H29.5527H64.2713H64.9745L64.7436 123.576C64.3286 122.383 64.004 121.141 63.7784 119.864C62.4757 112.473 64.7506 104.88 70.0405 100.642L70.2278 100.492V100.252V78.9302V78.1406L69.5141 78.4782C63.1625 81.4822 55.6402 80.9443 49.7781 77.0363C44.0883 73.2428 36.4504 73.9997 31.6144 78.8347L31.6143 78.8348L29.1991 81.2509ZM83.619 105.064V104.782L83.378 104.636C79.4508 102.258 75.4232 103.106 72.6587 105.938C69.9146 108.749 68.436 113.476 69.388 118.876C69.974 122.199 71.5864 125.441 73.8317 127.727C76.0788 130.014 79.0051 131.383 82.1839 130.823C83.1167 130.658 83.9284 130.281 84.6625 129.863C85.0249 129.656 85.3747 129.436 85.7096 129.225L85.7205 129.218C85.9762 129.057 86.2228 128.902 86.4672 128.757C86.7106 128.901 86.9564 129.056 87.2115 129.216L87.2241 129.224C87.5581 129.435 87.9074 129.655 88.2694 129.861C89.0039 130.28 89.8167 130.658 90.7496 130.823C93.9784 131.392 96.9119 129.984 99.1496 127.676C101.385 125.37 102.973 122.125 103.546 118.875C104.205 115.143 103.667 111.539 102.243 108.73C100.82 105.921 98.4922 103.878 95.5751 103.364C93.1875 102.943 91.109 103.696 89.5564 104.636L89.3154 104.782V105.064V109.849H83.619V105.064ZM83.8 97.8869C84.9475 90.236 91.4516 84.3134 99.3583 84.073V89.7727C94.7324 89.9897 90.8809 93.2028 89.6944 97.5072L89.4561 98.3716L90.3167 98.12C92.3724 97.5191 94.4894 97.3886 96.5646 97.7541C105.87 99.396 110.942 109.731 109.155 119.864L109.155 119.864C108.93 121.141 108.606 122.383 108.191 123.575L107.96 124.24H108.663H123.74H124.24V123.74V77.6323L126.138 76.9611C129.008 75.947 130.936 73.2198 130.936 70.1743C130.936 66.2055 127.708 62.9778 123.74 62.9778H75.16H74.357L74.7113 63.6985L75.9234 66.1637V97.2408V97.8306L76.5053 97.734C78.7164 97.3669 80.9709 97.561 83.1473 98.2871L83.7118 98.4753L83.8 97.8869Z" fill="#BDBDBD" stroke="white"/>
<path d="M36.7472 96.9579C36.7472 89.8496 42.531 84.0659 49.6392 84.0659C56.7474 84.0659 62.5303 89.8496 62.5303 96.9579C62.5303 104.065 56.7474 109.849 49.6392 109.849C42.5309 109.849 36.7472 104.065 36.7472 96.9579ZM42.4436 96.9579C42.4436 100.926 45.6713 104.154 49.6392 104.154C53.6071 104.154 56.8348 100.926 56.8348 96.9579C56.8348 92.9892 53.6071 89.7615 49.6392 89.7615C45.6713 89.7615 42.4436 92.9892 42.4436 96.9579Z" fill="#BDBDBD" stroke="white"/>
</svg>
