<svg width="28" height="28" viewBox="0 0 28 28" fill="none" xmlns="http://www.w3.org/2000/svg">
<mask id="path-2-inside-1" fill="white">
<path fill-rule="evenodd" clip-rule="evenodd" d="M15.8389 5.21237C15.5332 4.49941 14.8249 4 14 4C13.1751 4 12.4668 4.49941 12.1611 5.21237C8.62918 6.04318 6 9.21455 6 13L6 18C4.89543 18 4 18.8954 4 20C4 21.1046 4.89543 22 6 22H22C23.1046 22 24 21.1046 24 20C24 18.8954 23.1046 18 22 18V13C22 9.21455 19.3708 6.04318 15.8389 5.21237Z"/>
</mask>
<path d="M15.8389 5.21237L14.9199 5.60652C15.045 5.89817 15.301 6.11314 15.61 6.1858L15.8389 5.21237ZM12.1611 5.21237L12.39 6.1858C12.699 6.11314 12.955 5.89817 13.0801 5.60652L12.1611 5.21237ZM6 13H7H6ZM6 18V19C6.55228 19 7 18.5523 7 18H6ZM22 18H21C21 18.5523 21.4477 19 22 19V18ZM16.758 4.81822C16.3002 3.75081 15.2389 3 14 3V5C14.4109 5 14.7661 5.248 14.9199 5.60652L16.758 4.81822ZM14 3C12.7611 3 11.6998 3.75081 11.242 4.81822L13.0801 5.60652C13.2339 5.248 13.5891 5 14 5V3ZM11.9321 4.23894C7.95866 5.17361 5 8.74008 5 13H7C7 9.68903 9.2997 6.91275 12.39 6.1858L11.9321 4.23894ZM5 13L5 18H7L7 13H5ZM6 17C4.34315 17 3 18.3431 3 20H5C5 19.4477 5.44772 19 6 19V17ZM3 20C3 21.6569 4.34315 23 6 23V21C5.44772 21 5 20.5523 5 20H3ZM6 23H22V21H6V23ZM22 23C23.6569 23 25 21.6569 25 20H23C23 20.5523 22.5523 21 22 21V23ZM25 20C25 18.3431 23.6569 17 22 17V19C22.5523 19 23 19.4477 23 20H25ZM23 18V13H21V18H23ZM23 13C23 8.74008 20.0413 5.17361 16.0679 4.23894L15.61 6.1858C18.7003 6.91275 21 9.68903 21 13H23Z" fill="#61BF3D" mask="url(#path-2-inside-1)"/>
<path d="M14 23.5C12.7905 23.5 11.7816 22.6411 11.55 21.5H11.9375H14H16.0625H16.45C16.2184 22.6411 15.2095 23.5 14 23.5Z" stroke="#61BF3D"/>
</svg>
