<svg width="24" height="24" viewBox="0 0 24 24" fill="none" xmlns="http://www.w3.org/2000/svg">
<mask id="path-2-inside-1" fill="white">
<path fill-rule="evenodd" clip-rule="evenodd" d="M13.8389 3.21237C13.5332 2.49941 12.8249 2 12 2C11.1751 2 10.4668 2.49941 10.1611 3.21237C6.62918 4.04318 4 7.21455 4 11L4 16C2.89543 16 2 16.8954 2 18C2 19.1046 2.89543 20 4 20H20C21.1046 20 22 19.1046 22 18C22 16.8954 21.1046 16 20 16V11C20 7.21455 17.3708 4.04318 13.8389 3.21237Z"/>
</mask>
<path d="M13.8389 3.21237L12.9199 3.60652C13.045 3.89817 13.301 4.11314 13.61 4.1858L13.8389 3.21237ZM10.1611 3.21237L10.39 4.1858C10.699 4.11314 10.955 3.89817 11.0801 3.60652L10.1611 3.21237ZM4 11H5H4ZM4 16V17C4.55228 17 5 16.5523 5 16H4ZM20 16H19C19 16.5523 19.4477 17 20 17V16ZM14.758 2.81822C14.3002 1.75081 13.2389 1 12 1V3C12.4109 3 12.7661 3.248 12.9199 3.60652L14.758 2.81822ZM12 1C10.7611 1 9.6998 1.75081 9.24202 2.81822L11.0801 3.60652C11.2339 3.248 11.5891 3 12 3V1ZM9.93208 2.23894C5.95866 3.17361 3 6.74008 3 11H5C5 7.68903 7.2997 4.91275 10.39 4.1858L9.93208 2.23894ZM3 11L3 16H5L5 11H3ZM4 15C2.34315 15 1 16.3431 1 18H3C3 17.4477 3.44772 17 4 17V15ZM1 18C1 19.6569 2.34315 21 4 21V19C3.44772 19 3 18.5523 3 18H1ZM4 21H20V19H4V21ZM20 21C21.6569 21 23 19.6569 23 18H21C21 18.5523 20.5523 19 20 19V21ZM23 18C23 16.3431 21.6569 15 20 15V17C20.5523 17 21 17.4477 21 18H23ZM21 16V11H19V16H21ZM21 11C21 6.74008 18.0413 3.17361 14.0679 2.23894L13.61 4.1858C16.7003 4.91275 19 7.68903 19 11H21Z" fill="#757575" mask="url(#path-2-inside-1)"/>
<path d="M12 21.5C10.7905 21.5 9.78164 20.6411 9.55001 19.5H9.9375H12H14.0625H14.45C14.2184 20.6411 13.2095 21.5 12 21.5Z" stroke="#6F6F6F"/>
</svg>
