<svg width="24" height="24" viewBox="0 0 24 24" fill="none" xmlns="http://www.w3.org/2000/svg">
<path fill-rule="evenodd" clip-rule="evenodd" d="M18.3066 19.433C18.3066 19.6494 18.2491 19.8611 18.1388 20.0456C17.67 20.8283 17.281 21.4297 17.0486 21.734L15.3929 19.8411C15.2803 19.7141 15.1198 19.639 14.9504 19.635C14.7843 19.6326 14.6182 19.7013 14.5016 19.8267L12.7205 21.742L11.0001 19.8355C10.8858 19.7101 10.7245 19.6374 10.5552 19.6374H10.5504C10.3795 19.6398 10.2173 19.7149 10.1039 19.8435L8.44662 21.7372L6.66712 19.8235C6.5529 19.7005 6.40275 19.6231 6.22384 19.6326C6.05611 19.6342 5.89557 19.7069 5.78376 19.8307L4.06016 21.7404C3.82854 21.4361 3.43718 20.8307 2.96674 20.0456C2.85732 19.8611 2.79902 19.6494 2.79902 19.433V6.75841C2.79902 6.09788 3.33654 5.56036 3.99706 5.56036H17.1085C17.769 5.56036 18.3066 6.09788 18.3066 6.75841V19.433ZM17.1082 4.76166H3.99675C2.89614 4.76166 2 5.657 2 6.75841V19.433C2 19.794 2.09744 20.1478 2.28114 20.4545C2.72841 21.2029 3.32584 22.1581 3.62935 22.4656C3.74116 22.5782 3.89531 22.6437 4.05346 22.6437H4.06544C4.22997 22.6405 4.38731 22.5687 4.49833 22.4457L6.22991 20.5272L8.01261 22.4433C8.12762 22.5663 8.27299 22.6142 8.45988 22.6342C8.62921 22.631 8.78974 22.5567 8.90236 22.4289L10.5573 20.5384L12.2729 22.4393C12.3847 22.5623 12.5452 22.6358 12.713 22.6366H12.7177C12.8831 22.6366 13.0428 22.5663 13.1562 22.4449L14.9357 20.532L16.601 22.4361C16.7104 22.5607 16.8686 22.6358 17.0347 22.6413C17.2032 22.6429 17.3614 22.5806 17.4764 22.4632C17.7208 22.2172 18.1729 21.5423 18.823 20.4545C19.0075 20.1478 19.1049 19.794 19.1049 19.433V6.75841C19.1049 5.657 18.2088 4.76166 17.1082 4.76166Z" fill="#757575"/>
<path d="M18.1388 20.0456L18.1817 20.0713L18.1818 20.0712L18.1388 20.0456ZM17.0486 21.734L17.011 21.7669L17.0512 21.813L17.0883 21.7644L17.0486 21.734ZM15.3929 19.8411L15.4305 19.8082L15.4303 19.8079L15.3929 19.8411ZM14.9504 19.635L14.9516 19.5851L14.9511 19.585L14.9504 19.635ZM14.5016 19.8267L14.5382 19.8608H14.5382L14.5016 19.8267ZM12.7205 21.742L12.6833 21.7755L12.7199 21.816L12.7571 21.7761L12.7205 21.742ZM11.0001 19.8355L11.0372 19.802L11.037 19.8018L11.0001 19.8355ZM10.5504 19.6374V19.5874L10.5497 19.5874L10.5504 19.6374ZM10.1039 19.8435L10.0664 19.8104L10.0663 19.8106L10.1039 19.8435ZM8.44662 21.7372L8.41 21.7713L8.44774 21.8119L8.48425 21.7701L8.44662 21.7372ZM6.66712 19.8235L6.63048 19.8576L6.6305 19.8576L6.66712 19.8235ZM6.22384 19.6326L6.22432 19.6827L6.22651 19.6826L6.22384 19.6326ZM5.78376 19.8307L5.74665 19.7972L5.74664 19.7972L5.78376 19.8307ZM4.06016 21.7404L4.02038 21.7707L4.05689 21.8187L4.09728 21.7739L4.06016 21.7404ZM2.96674 20.0456L2.92374 20.0711L2.92385 20.0713L2.96674 20.0456ZM2.28114 20.4545L2.32406 20.4289L2.32404 20.4288L2.28114 20.4545ZM3.62935 22.4656L3.59376 22.5008L3.59387 22.5009L3.62935 22.4656ZM4.06544 22.6437V22.6938L4.06641 22.6937L4.06544 22.6437ZM4.49833 22.4457L4.53545 22.4792H4.53545L4.49833 22.4457ZM6.22991 20.5272L6.26652 20.4931L6.22935 20.4532L6.1928 20.4937L6.22991 20.5272ZM8.01261 22.4433L7.976 22.4773L7.97609 22.4774L8.01261 22.4433ZM8.45988 22.6342L8.45453 22.6843L8.46082 22.6841L8.45988 22.6342ZM8.90236 22.4289L8.93987 22.462L8.93998 22.4618L8.90236 22.4289ZM10.5573 20.5384L10.5944 20.5049L10.5567 20.4631L10.5196 20.5054L10.5573 20.5384ZM12.2729 22.4393L12.2358 22.4728L12.2359 22.4729L12.2729 22.4393ZM12.713 22.6366L12.7127 22.6866H12.713V22.6366ZM13.1562 22.4449L13.1928 22.479L13.1928 22.4789L13.1562 22.4449ZM14.9357 20.532L14.9734 20.4991L14.9369 20.4573L14.8991 20.4979L14.9357 20.532ZM16.601 22.4361L16.5634 22.469L16.5635 22.4691L16.601 22.4361ZM17.0347 22.6413L17.033 22.6913L17.0342 22.6913L17.0347 22.6413ZM17.4764 22.4632L17.4409 22.428L17.4407 22.4282L17.4764 22.4632ZM18.823 20.4545L18.7802 20.4287L18.7801 20.4289L18.823 20.4545ZM18.2566 19.433C18.2566 19.6406 18.2014 19.8433 18.0959 20.0199L18.1818 20.0712C18.2967 19.8788 18.3566 19.6583 18.3566 19.433H18.2566ZM18.0959 20.0199C17.6271 20.8025 17.2394 21.4018 17.0089 21.7037L17.0883 21.7644C17.3226 21.4576 17.7129 20.8541 18.1817 20.0713L18.0959 20.0199ZM17.0862 21.7011L15.4305 19.8082L15.3553 19.874L17.011 21.7669L17.0862 21.7011ZM15.4303 19.8079C15.3086 19.6706 15.135 19.5894 14.9516 19.5851L14.9493 19.685C15.1046 19.6887 15.252 19.7576 15.3555 19.8743L15.4303 19.8079ZM14.9511 19.585C14.7711 19.5824 14.5913 19.6568 14.4649 19.7927L14.5382 19.8608C14.645 19.7459 14.7975 19.6828 14.9497 19.685L14.9511 19.585ZM14.4649 19.7927L12.6838 21.708L12.7571 21.7761L14.5382 19.8608L14.4649 19.7927ZM12.7576 21.7085L11.0372 19.802L10.9629 19.869L12.6833 21.7755L12.7576 21.7085ZM11.037 19.8018C10.9135 19.6663 10.7389 19.5874 10.5552 19.5874V19.6874C10.7101 19.6874 10.8582 19.754 10.9631 19.8692L11.037 19.8018ZM10.5552 19.5874H10.5504V19.6874H10.5552V19.5874ZM10.5497 19.5874C10.3645 19.59 10.1891 19.6714 10.0664 19.8104L10.1414 19.8766C10.2456 19.7585 10.3944 19.6896 10.5511 19.6874L10.5497 19.5874ZM10.0663 19.8106L8.40899 21.7043L8.48425 21.7701L10.1415 19.8764L10.0663 19.8106ZM8.48323 21.7032L6.70373 19.7895L6.6305 19.8576L8.41 21.7713L8.48323 21.7032ZM6.70376 19.7895C6.58155 19.6579 6.41772 19.5722 6.22116 19.5827L6.22651 19.6826C6.38778 19.6739 6.52426 19.7432 6.63048 19.8576L6.70376 19.7895ZM6.22336 19.5826C6.04161 19.5844 5.8678 19.6631 5.74665 19.7972L5.82086 19.8642C5.92334 19.7508 6.07061 19.6841 6.22431 19.6826L6.22336 19.5826ZM5.74664 19.7972L4.02304 21.7069L4.09728 21.7739L5.82087 19.8642L5.74664 19.7972ZM4.09995 21.7101C3.87016 21.4082 3.48002 20.8049 3.00963 20.0199L2.92385 20.0713C3.39433 20.8565 3.78692 21.464 4.02038 21.7707L4.09995 21.7101ZM3.00975 20.0201C2.9049 19.8433 2.84902 19.6404 2.84902 19.433H2.74902C2.74902 19.6584 2.80974 19.8789 2.92374 20.0711L3.00975 20.0201ZM2.84902 19.433V6.75841H2.74902V19.433H2.84902ZM2.84902 6.75841C2.84902 6.1255 3.36415 5.61036 3.99706 5.61036V5.51036C3.30893 5.51036 2.74902 6.07027 2.74902 6.75841H2.84902ZM3.99706 5.61036H17.1085V5.51036H3.99706V5.61036ZM17.1085 5.61036C17.7414 5.61036 18.2566 6.1255 18.2566 6.75841H18.3566C18.3566 6.07027 17.7967 5.51036 17.1085 5.51036V5.61036ZM18.2566 6.75841V19.433H18.3566V6.75841H18.2566ZM17.1082 4.71166H3.99675V4.81166H17.1082V4.71166ZM3.99675 4.71166C2.86854 4.71166 1.95 5.62937 1.95 6.75841H2.05C2.05 5.68463 2.92374 4.81166 3.99675 4.81166V4.71166ZM1.95 6.75841V19.433H2.05V6.75841H1.95ZM1.95 19.433C1.95 19.8029 2.04985 20.1657 2.23825 20.4802L2.32404 20.4288C2.14503 20.1299 2.05 19.785 2.05 19.433H1.95ZM2.23822 20.4802C2.46203 20.8546 2.7236 21.2812 2.96735 21.6528C3.21017 22.023 3.43797 22.3429 3.59376 22.5008L3.66493 22.4305C3.51722 22.2809 3.29455 21.9694 3.05097 21.598C2.8083 21.228 2.54753 20.8028 2.32406 20.4289L2.23822 20.4802ZM3.59387 22.5009C3.71485 22.6227 3.88169 22.6937 4.05346 22.6937V22.5937C3.90894 22.5937 3.76748 22.5338 3.66483 22.4304L3.59387 22.5009ZM4.05346 22.6937H4.06544V22.5937H4.05346V22.6937ZM4.06641 22.6937C4.24482 22.6903 4.41522 22.6124 4.53545 22.4792L4.46122 22.4122C4.3594 22.525 4.21512 22.5908 4.06447 22.5938L4.06641 22.6937ZM4.53545 22.4792L6.26703 20.5607L6.1928 20.4937L4.46121 22.4122L4.53545 22.4792ZM6.19331 20.5612L7.976 22.4773L8.04922 22.4092L6.26652 20.4931L6.19331 20.5612ZM7.97609 22.4774C8.10275 22.6129 8.26197 22.6633 8.45457 22.6839L8.46519 22.5844C8.284 22.5651 8.15249 22.5197 8.04913 22.4091L7.97609 22.4774ZM8.46082 22.6841C8.64421 22.6807 8.818 22.6002 8.93987 22.462L8.86485 22.3958C8.76149 22.5131 8.61421 22.5812 8.45894 22.5842L8.46082 22.6841ZM8.93998 22.4618L10.5949 20.5713L10.5196 20.5054L8.86474 22.396L8.93998 22.4618ZM10.5201 20.5719L12.2358 22.4728L12.31 22.4058L10.5944 20.5049L10.5201 20.5719ZM12.2359 22.4729C12.3569 22.606 12.5307 22.6857 12.7127 22.6866L12.7132 22.5866C12.5598 22.5858 12.4125 22.5185 12.3099 22.4056L12.2359 22.4729ZM12.713 22.6866H12.7177V22.5866H12.713V22.6866ZM12.7177 22.6866C12.8972 22.6866 13.0701 22.6104 13.1928 22.479L13.1197 22.4107C13.0156 22.5222 12.869 22.5866 12.7177 22.5866V22.6866ZM13.1928 22.4789L14.9723 20.566L14.8991 20.4979L13.1196 22.4108L13.1928 22.4789ZM14.8981 20.5649L16.5634 22.469L16.6387 22.4032L14.9734 20.4991L14.8981 20.5649ZM16.5635 22.4691C16.682 22.604 16.8531 22.6853 17.033 22.6913L17.0364 22.5914C16.8841 22.5862 16.7389 22.5173 16.6386 22.4031L16.5635 22.4691ZM17.0342 22.6913C17.2155 22.6931 17.387 22.626 17.5121 22.4982L17.4407 22.4282C17.3358 22.5353 17.191 22.5928 17.0352 22.5913L17.0342 22.6913ZM17.5119 22.4985C17.6378 22.3717 17.8142 22.1379 18.0391 21.8024C18.2646 21.4659 18.5406 21.0244 18.8659 20.4802L18.7801 20.4289C18.4552 20.9724 18.1802 21.4123 17.956 21.7467C17.7312 22.0821 17.5594 22.3087 17.4409 22.428L17.5119 22.4985ZM18.8659 20.4803C19.0551 20.1657 19.1549 19.8029 19.1549 19.433H19.0549C19.0549 19.785 18.9599 20.1299 18.7802 20.4287L18.8659 20.4803ZM19.1549 19.433V6.75841H19.0549V19.433H19.1549ZM19.1549 6.75841C19.1549 5.62937 18.2364 4.71166 17.1082 4.71166V4.81166C18.1812 4.81166 19.0549 5.68463 19.0549 6.75841H19.1549Z" fill="#757575"/>
<path fill-rule="evenodd" clip-rule="evenodd" d="M20.0032 2H6.89177C5.79116 2 4.89502 2.89614 4.89502 3.99675H5.69372C5.69372 3.33622 6.23124 2.7987 6.89177 2.7987H20.0032C20.6637 2.7987 21.2013 3.33622 21.2013 3.99675V17.1082C21.2013 17.7687 20.6637 18.3062 20.0032 18.3062V19.1049C21.1046 19.1049 22 18.208 22 17.1082V3.99675C22 2.89614 21.1046 2 20.0032 2Z" fill="#757575"/>
<path d="M20.0032 2H6.89177C5.79116 2 4.89502 2.89614 4.89502 3.99675H5.69372C5.69372 3.33622 6.23124 2.7987 6.89177 2.7987H20.0032C20.6637 2.7987 21.2013 3.33622 21.2013 3.99675V17.1082C21.2013 17.7687 20.6637 18.3062 20.0032 18.3062V19.1049C21.1046 19.1049 22 18.208 22 17.1082V3.99675C22 2.89614 21.1046 2 20.0032 2" stroke="#757575" stroke-width="0.1"/>
</svg>
