<svg width="24" height="24" viewBox="0 0 24 24" fill="none" xmlns="http://www.w3.org/2000/svg">
<mask id="path-2-inside-1" fill="white">
<path fill-rule="evenodd" clip-rule="evenodd" d="M1 15L15.1421 0.857865L17.0705 2.78625L17.0704 2.78634C16.0054 3.85141 16.0054 5.57822 17.0704 6.64329C18.1355 7.70835 19.8623 7.70835 20.9274 6.64329L20.9275 6.6432L22.856 8.57176L8.71389 22.7139L6.78542 20.7854C7.85049 19.7203 7.85049 17.9935 6.78542 16.9285C5.72035 15.8634 3.99354 15.8634 2.92847 16.9285M1 15L2.92847 16.9285L1 15Z"/>
</mask>
<path d="M3.28203 16.5749L1.35355 14.6464L0.646447 15.3536L2.57492 17.282L3.28203 16.5749ZM0.646447 15.3536L2.57492 17.282L3.28203 16.5749L1.35355 14.6464L0.646447 15.3536ZM15.1421 0.857865L15.8492 0.150758L15.1421 -0.556349L14.435 0.150758L15.1421 0.857865ZM1 15L0.292893 14.2929L-0.414214 15L0.292893 15.7071L1 15ZM17.0705 2.78625L17.7776 3.49336L18.4847 2.78625L17.7776 2.07914L17.0705 2.78625ZM20.9275 6.6432L21.6346 5.93609L20.9275 5.22898L20.2204 5.93609L20.9275 6.6432ZM22.856 8.57176L23.5631 9.27886L24.2702 8.57176L23.5631 7.86465L22.856 8.57176ZM8.71389 22.7139L8.00678 23.421L8.71389 24.1281L9.421 23.421L8.71389 22.7139ZM6.78542 20.7854L6.07831 20.0783L5.37121 20.7854L6.07831 21.4925L6.78542 20.7854ZM14.435 0.150758L0.292893 14.2929L1.70711 15.7071L15.8492 1.56497L14.435 0.150758ZM17.7776 2.07914L15.8492 0.150758L14.435 1.56497L16.3634 3.49336L17.7776 2.07914ZM17.7775 3.49345L17.7776 3.49336L16.3634 2.07914L16.3633 2.07923L17.7775 3.49345ZM17.7775 5.93618C17.103 5.26164 17.103 4.16799 17.7775 3.49345L16.3633 2.07923C14.9077 3.53482 14.9077 5.8948 16.3633 7.35039L17.7775 5.93618ZM20.2203 5.93618C19.5457 6.61072 18.4521 6.61072 17.7775 5.93618L16.3633 7.35039C17.8189 8.80598 20.1789 8.80598 21.6345 7.35039L20.2203 5.93618ZM20.2204 5.93609L20.2203 5.93618L21.6345 7.35039L21.6346 7.3503L20.2204 5.93609ZM23.5631 7.86465L21.6346 5.93609L20.2204 7.3503L22.1489 9.27886L23.5631 7.86465ZM9.421 23.421L23.5631 9.27886L22.1489 7.86465L8.00679 22.0068L9.421 23.421ZM6.07831 21.4925L8.00678 23.421L9.421 22.0068L7.49253 20.0783L6.07831 21.4925ZM7.49253 21.4925C8.94812 20.0369 8.94812 17.677 7.49253 16.2214L6.07831 17.6356C6.75285 18.3101 6.75285 19.4038 6.07831 20.0783L7.49253 21.4925ZM7.49253 16.2214C6.03694 14.7658 3.67696 14.7658 2.22137 16.2214L3.63558 17.6356C4.31012 16.961 5.40377 16.961 6.07831 17.6356L7.49253 16.2214ZM0.292893 15.7071L2.22136 17.6356L3.63558 16.2214L1.70711 14.2929L0.292893 15.7071Z" fill="#6F6F6F" mask="url(#path-2-inside-1)"/>
</svg>
