<svg width="24" height="24" viewBox="0 0 24 24" fill="none" xmlns="http://www.w3.org/2000/svg">
<path d="M5.28041 19.9378L5.47771 20.1047L5.71099 19.9935L7.5105 19.1351C7.57062 19.1065 7.63219 19.081 7.69496 19.0587C8.6878 18.7071 9.77767 19.227 10.1293 20.2198L10.7948 22.0992L10.881 22.3429L11.1386 22.3643C11.7163 22.4125 12.2926 22.4115 12.8619 22.3637L13.1192 22.3421L13.2055 22.0986L13.8707 20.2198C13.893 20.1571 13.9185 20.0955 13.9471 20.0354C14.4006 19.0847 15.5388 18.6817 16.4895 19.1351L18.2884 19.9932L18.5215 20.1044L18.7188 19.9377C19.1551 19.5689 19.5633 19.1621 19.9378 18.7196L20.1047 18.5223L19.9935 18.289L19.1351 16.4895C19.1065 16.4294 19.081 16.3678 19.0587 16.305C18.7071 15.3122 19.227 14.2223 20.2198 13.8707L22.0992 13.2052L22.3429 13.119L22.3643 12.8614C22.4125 12.2837 22.4115 11.7074 22.3637 11.1381L22.3421 10.8808L22.0986 10.7945L20.2198 10.1293C20.1571 10.107 20.0955 10.0815 20.0354 10.0529C19.0847 9.59941 18.6817 8.46116 19.1351 7.51051L19.9932 5.71158L20.1044 5.47846L19.9377 5.28119C19.5689 4.84486 19.1621 4.43666 18.7196 4.0622L18.5223 3.89526L18.289 4.00653L16.4895 4.86487C16.4294 4.89354 16.3678 4.91904 16.305 4.94127C15.3122 5.29285 14.2223 4.773 13.8707 3.78015L13.2052 1.90076L13.119 1.65713L12.8614 1.63566C12.2837 1.58751 11.7074 1.58851 11.1381 1.6363L10.8808 1.65791L10.7945 1.90138L10.1293 3.78015C10.107 3.84293 10.0815 3.9045 10.0529 3.9646C9.5994 4.91525 8.46116 5.31832 7.51051 4.86487L5.71158 4.00681L5.47846 3.89562L5.28119 4.06233C4.84486 4.43106 4.43666 4.83786 4.0622 5.28041L3.89526 5.47771L4.00653 5.71099L4.86487 7.51051C4.89354 7.57062 4.91904 7.63218 4.94127 7.69496C5.29285 8.6878 4.773 9.77767 3.78015 10.1293L1.90076 10.7948L1.65713 10.881L1.63566 11.1386C1.58751 11.7163 1.58851 12.2926 1.6363 12.8619L1.65791 13.1192L1.90138 13.2055L3.78015 13.8707C3.84293 13.893 3.9045 13.9185 3.9646 13.9471L4.13681 13.5861L3.9646 13.9472C4.91525 14.4006 5.31832 15.5388 4.86487 16.4895L4.00681 18.2884L3.89562 18.5215L4.06233 18.7188C4.43106 19.1551 4.83786 19.5633 5.28041 19.9378Z" stroke="#6F6F6F" stroke-width="0.8"/>
<path d="M12.0003 15.3333C10.1624 15.3333 8.66699 13.838 8.66699 12C8.66699 10.162 10.1624 8.66666 12.0003 8.66666C13.8383 8.66666 15.3337 10.162 15.3337 12C15.3337 13.838 13.8383 15.3333 12.0003 15.3333" stroke="#6F6F6F" stroke-width="0.8"/>
</svg>
