<svg width="28" height="28" viewBox="0 0 28 28" fill="none" xmlns="http://www.w3.org/2000/svg">
<path d="M24.9083 6.9333C24.8167 6.84165 24.725 6.74996 24.5417 6.74996H7.125L6.66665 4.36665C6.66665 4.1833 6.39165 4 6.2083 4H3.4583C3.18335 3.99996 3 4.1833 3 4.4583C3 4.7333 3.18335 4.91665 3.45835 4.91665H5.8417L8.0417 16.1C8.3167 17.5667 9.6917 18.6667 11.1583 18.6667H21.7C21.975 18.6667 22.1583 18.4833 22.1583 18.2083C22.1583 17.9333 21.975 17.75 21.7 17.75H11.25C10.5167 17.75 9.78335 17.3833 9.41665 16.7416L22.8 14.9083C22.9833 14.9083 23.1667 14.725 23.1667 14.5417L25 7.2083C25 7.2083 25 7.02496 24.9083 6.9333ZM22.3417 14.0833L8.9583 15.825L7.3083 7.57496H23.9L22.3417 14.0833Z" fill="#61BF3D"/>
<path d="M10.7917 19.5833C9.50835 19.5833 8.5 20.5916 8.5 21.8749C8.5 23.1583 9.50835 24.1666 10.7917 24.1666C12.075 24.1666 13.0833 23.1582 13.0833 21.8749C13.0833 20.5916 12.075 19.5833 10.7917 19.5833ZM10.7917 23.2499C10.0583 23.2499 9.41665 22.6082 9.41665 21.8749C9.41665 21.1416 10.0583 20.4999 10.7917 20.4999C11.525 20.4999 12.1667 21.1416 12.1667 21.8749C12.1667 22.6082 11.525 23.2499 10.7917 23.2499Z" fill="#61BF3D"/>
<path d="M19.9582 19.5833C18.6748 19.5833 17.6665 20.5916 17.6665 21.8749C17.6665 23.1583 18.6749 24.1666 19.9582 24.1666C21.2415 24.1666 22.2498 23.1582 22.2498 21.8749C22.2498 20.5916 21.2415 19.5833 19.9582 19.5833ZM19.9582 23.2499C19.2248 23.2499 18.5832 22.6082 18.5832 21.8749C18.5832 21.1416 19.2248 20.4999 19.9582 20.4999C20.6915 20.4999 21.3332 21.1416 21.3332 21.8749C21.3332 22.6082 20.6915 23.2499 19.9582 23.2499Z" fill="#61BF3D"/>
</svg>
